<svg id="icon" height="512" viewBox="0 0 128 128" width="512" xmlns="http://www.w3.org/2000/svg"><path d="m122.986 74.2a3.137 3.137 0 0 1 -1.2 1.839c-2.595 2.194-9.026 3.7-16.646 4.73-16.84 2.295-39.494 2.295-39.494 2.295h-33.43l-25.58-10.2-3.172-4.849c-1.181-2.068-.741-4.02 1.467-5.848 2.4-3.481 20.2-7.636 29.41-7.744 2.016-.024 6.572.29 7.426.172 5.157-.716 6.871-1.143 11.174-3.291 4.861-2.431 9.88-11.134 15.352-13.348.177-.066.355-.131.532-.19 5.682-1.839 7.521 8.691 19.057 9.689s19.057.913 24.574-9.906c0 0 4.841-4.3 6.852 5.564q.384 1.872.808 3.856c1.924 9.084 4.184 19.495 2.87 27.231z" fill="#d9e2e9"/><path d="m113.763 78.893c.985-.131 1.951-.276 2.89-.427a75.722 75.722 0 0 1 -11.515 2.306c-16.838 2.292-39.492 2.292-39.492 2.292h-33.43l-25.58-10.2-3.172-4.849c-1.182-2.069-.742-4.02 1.465-5.846 1.688-2.444 10.977-5.229 19.549-6.7-5.36 1.445-9.807 3.206-10.918 4.822-2.214 1.826-2.654 3.777-1.471 5.846 12.185 7.837 36.228 11.758 62.182 15.049 0-.001 22.656-.001 39.492-2.293z" fill="#c1cdd3"/><path d="m65.646 84.064h-33.622l-26.051-10.39-3.346-5.111c-1.03-1.8-1.555-4.436 1.57-7.084 3.03-3.949 21.12-7.949 30.133-8.056.937-.014 2.387.048 3.785.105s3.139.13 3.516.076c5.012-.7 6.615-1.074 10.864-3.195 2.1-1.052 4.31-3.447 6.646-5.983 2.777-3.015 5.649-6.132 8.777-7.4.215-.081.4-.15.591-.212 3.19-1.032 5.39 1.12 7.719 3.4 2.609 2.554 5.855 5.732 11.741 6.242 11.171.972 18.289 1.042 23.6-9.364l.085-.168.141-.125a4.629 4.629 0 0 1 4.212-1c2.019.672 3.46 3.064 4.284 7.109.255 1.244.524 2.529.806 3.846l.1.482c1.921 9.064 4.1 19.338 2.777 27.128a4.106 4.106 0 0 1 -1.548 2.441c-2.492 2.107-8.1 3.728-17.152 4.953-16.711 2.28-39.401 2.306-39.628 2.306zm-33.238-2h33.238c.226 0 22.783-.026 39.358-2.283 10.637-1.44 14.645-3.243 16.135-4.5a2.212 2.212 0 0 0 .861-1.244c1.259-7.414-.877-17.49-2.761-26.38l-.1-.48c-.283-1.321-.552-2.611-.809-3.862-.652-3.2-1.7-5.194-2.957-5.612a2.5 2.5 0 0 0 -2.125.5c-5.754 11.097-13.825 11.261-25.453 10.247-6.6-.571-10.279-4.174-12.967-6.805-2.406-2.356-3.751-3.555-5.695-2.929-.159.053-.325.115-.493.177-2.684 1.086-5.4 4.036-8.029 6.889-2.464 2.674-4.792 5.2-7.223 6.417-4.486 2.24-6.292 2.667-11.483 3.387a34.6 34.6 0 0 1 -3.873-.059c-1.373-.056-2.8-.117-3.68-.1-9.768.115-26.606 4.42-28.6 7.312l-.186.2c-2.316 1.917-1.876 3.455-1.233 4.58l2.967 4.531z" fill="#2f3a5a"/><path d="m120.116 46.968c-1.57-1.182-4.277-1.334-8.665 3.5-8.191 9.026-11.535 11.7-11.535 11.7-3.055 2.069-26.23-14.156-31.623-24.213-5.472 2.214-10.493 10.918-15.352 13.345-4.3 2.148-6.017 2.575-11.174 3.291 2.082 4.92 4.263 13.644 1.478 25.626l10.07 2.844 4.138 1.169 39.617-1.169 8.067-2.293 16.646-4.73a3.137 3.137 0 0 0 1.2-1.839c1.317-7.735-.943-18.146-2.867-27.231z" fill="#e95a6a"/><path d="m120.116 46.968c-1.57-1.182-4.277-1.334-8.665 3.5-8.191 9.026-11.535 11.7-11.535 11.7-3.055 2.069-26.23-14.156-31.623-24.213-5.472 2.214-10.493 10.918-15.352 13.345-4.3 2.148-6.017 2.575-11.174 3.291a38.292 38.292 0 0 1 2.706 17.375c1.064-2.844 1.55-5.17.913-6.674 5.157-.716 6.871-1.143 11.174-3.291 4.861-2.431 9.88-11.134 15.352-13.348 5.393 10.057 28.568 26.282 31.623 24.213 0 0 3.344-2.674 11.535-11.7 3.147-3.468 5.433-4.375 7.048-4.165-.59-3.392-1.318-6.795-2.002-10.033z" fill="#f26176"/><path d="m57.33 85.237-15.274-4.314.216-.93c2.684-11.547.707-19.974-1.425-25.009l-.508-1.2 1.292-.18c5.012-.7 6.615-1.074 10.865-3.195 2.1-1.052 4.31-3.447 6.646-5.983 2.777-3.015 5.649-6.132 8.777-7.4l.832-.336.424.791c5.432 10.129 27.368 24.8 30.179 23.854.5-.414 3.94-3.367 11.357-11.54 4.977-5.482 8.188-5 10.007-3.628l.3.226.179.846c1.921 9.065 4.1 19.339 2.776 27.13a4.1 4.1 0 0 1 -1.547 2.439l-.163.136-25.163 7.119zm-12.9-5.723 13.15 3.715 39.34-1.162 24.38-6.926a2.035 2.035 0 0 0 .7-1.1c1.259-7.416-.876-17.492-2.761-26.382l-.017-.078c-2.078-1.156-4.944 1.266-7.031 3.564-8.151 8.982-11.512 11.7-11.651 11.809a3.123 3.123 0 0 1 -2.616.225c-6.537-1.611-24.509-14.8-30.042-23.925-2.45 1.3-4.9 3.954-7.271 6.531-2.464 2.674-4.792 5.2-7.223 6.417a27.532 27.532 0 0 1 -10.219 3.198c1.985 5.254 3.564 13.374 1.259 24.115z" fill="#2f3a5a"/><path d="m123.353 69.021s-5.513 8.639-33.376 5.087a31.418 31.418 0 0 0 -11.969.795c-7.288 1.919-20.022 4.705-30.843 4.148-16.231-.836-50.35-8.358-42.234-16.883 0 0-5.8.836-3.313 10.866s36.273 18.721 64.595 16.38c0 0 7.784-2.407 20.041.385s38.424 2.959 40.746-8.408c0 0-2.156-10.699-3.647-12.37z" fill="#84879c"/><path d="m4.594 62.556c-.085-.072-.164-.151-.237-.223a2.919 2.919 0 0 1 .572-.164 4.392 4.392 0 0 0 -.335.387z" fill="#84879c"/><path d="m127 81.389c-2.319 11.371-28.49 11.2-40.747 8.408s-20.042-.381-20.042-.381c-28.319 2.339-62.111-6.352-64.593-16.383a18.388 18.388 0 0 1 -.618-4.598c4.093 9.665 36.787 17.815 64.317 15.542 0 0 7.784-2.411 20.042.381 12.008 2.739 37.384 2.949 40.57-7.745.624 2.569 1.071 4.776 1.071 4.776z" fill="#707583"/><path d="m102.023 92.4a75.934 75.934 0 0 1 -15.992-1.622c-11.811-2.69-19.449-.427-19.525-.4l-.211.041c-29.241 2.406-62.984-6.401-65.647-17.146-1.049-4.233-.828-7.5.656-9.7a5.49 5.49 0 0 1 3.485-2.393l2.858-.412-1.991 2.088c-1.182 1.242-1.021 2.135-.8 2.7 2.4 6.009 27.347 11.723 42.357 12.5 10.856.56 23.789-2.339 30.537-4.116a32.275 32.275 0 0 1 12.35-.82c26.922 3.434 32.354-4.552 32.406-4.633l.71-1.113.879.986c1.59 1.784 3.509 11.007 3.877 12.838l.04.2-.041.2a9.959 9.959 0 0 1 -4.731 6.376c-5.032 3.241-13.261 4.426-21.217 4.426zm-27.323-4.957a53.069 53.069 0 0 1 11.772 1.381c9.838 2.241 27.712 2.6 35.686-2.539a8.127 8.127 0 0 0 3.813-4.9 78.359 78.359 0 0 0 -2.827-10.68c-2.646 2.353-11.021 7.237-33.3 4.4a30.247 30.247 0 0 0 -11.587.77c-6.862 1.807-20.034 4.75-31.149 4.18-13.379-.696-41.083-6.175-44.108-13.755a4.164 4.164 0 0 1 -.284-1.2c-.905 1.718-.951 4.363-.126 7.691 2.164 8.732 33.9 18.046 63.438 15.634a33.113 33.113 0 0 1 8.672-.982z" fill="#2f3a5a"/><circle cx="65.931" cy="46.869" fill="#707583" r="2.516"/><path d="m65.931 50.385a3.516 3.516 0 1 1 3.516-3.516 3.52 3.52 0 0 1 -3.516 3.516zm0-5.032a1.516 1.516 0 1 0 1.516 1.516 1.517 1.517 0 0 0 -1.516-1.515z" fill="#2f3a5a"/><circle cx="59.042" cy="53.972" fill="#707583" r="2.312"/><path d="m59.042 57.284a3.312 3.312 0 1 1 3.312-3.312 3.316 3.316 0 0 1 -3.312 3.312zm0-4.624a1.312 1.312 0 1 0 1.312 1.312 1.313 1.313 0 0 0 -1.312-1.312z" fill="#2f3a5a"/><circle cx="50.214" cy="57.961" fill="#707583" r="2.588"/><g fill="#2f3a5a"><path d="m50.214 61.549a3.588 3.588 0 1 1 3.586-3.588 3.592 3.592 0 0 1 -3.586 3.588zm0-5.176a1.588 1.588 0 1 0 1.586 1.588 1.59 1.59 0 0 0 -1.586-1.588z"/><path d="m65.727 47.666a1 1 0 0 1 -.722-.308l-4.481-4.672a1 1 0 0 1 1.443-1.386l4.481 4.672a1 1 0 0 1 -.722 1.692z"/><path d="m58.747 54.649a1 1 0 0 1 -.789-.385l-3.9-5a1 1 0 0 1 1.577-1.23l3.9 5a1 1 0 0 1 -.788 1.615z"/><path d="m50.232 58.985a1 1 0 0 1 -.9-.562l-2.8-5.746a1 1 0 0 1 1.8-.875l2.8 5.746a1 1 0 0 1 -.9 1.438z"/></g></svg>