<?xml version="1.0" encoding="iso-8859-1"?>
<!-- Generator: Adobe Illustrator 19.0.0, SVG Export Plug-In . SVG Version: 6.00 Build 0)  -->
<svg version="1.1" id="Capa_1" xmlns="http://www.w3.org/2000/svg" xmlns:xlink="http://www.w3.org/1999/xlink" x="0px" y="0px"
	 viewBox="0 0 512 512" style="enable-background:new 0 0 512 512;" xml:space="preserve">
<path style="fill:#7EC2DB;" d="M396.287,147.59c-1.35-44.18-6.28-69.11-20.52-97.59V10c-9.862,0-229.357,0-240,0v40
	c-14.17,28.34-19.15,53.6-20.52,97.59c-1.81,57.18,2.47,146.01,0.52,314.41v40h120v-40V357.98c0-67.82,6.7-141.48,20-207.98
	c13.3,66.5,20,140.16,20,207.98V462v40h120v-40C393.797,293.04,398.007,204.4,396.287,147.59z"/>
<g>
	<path style="fill:#FFFFFF;" d="M396.287,147.59h-0.1c-34.72-8.74-60.42-40.16-60.42-77.59V50h40
		C390.007,78.48,394.937,103.41,396.287,147.59z"/>
	<path style="fill:#FFFFFF;" d="M175.767,50v20c0,37.43-25.71,68.86-60.43,77.59h-0.09c1.37-43.99,6.35-69.25,20.52-97.59H175.767z"
		/>
</g>
<path d="M346.017,316c0,5.52,4.48,10,10,10s10-4.48,10-10s-4.48-10-10-10S346.017,310.48,346.017,316z"/>
<path d="M376.017,0c-10.723,0-230.174,0-240,0c-5.522,0-10,4.477-10,10v37.675c-13.706,28.161-19.114,54.6-20.515,99.598
	c-0.806,25.461-0.427,56.219,0.099,98.79c0.635,51.436,1.505,121.879,0.417,215.821c0,0.018,0.002,0.036,0.002,0.055
	c0,0.021-0.003,0.041-0.003,0.061v40c0,5.522,4.478,10,10,10h120c5.522,0,10-4.478,10-10c0-15.575,0-128.967,0-144.02
	c0-48.557,3.483-99.177,10-147.169c6.517,47.992,10,98.612,10,147.169c0,15.053,0,128.411,0,144.02c0,5.522,4.478,10,10,10h120
	c5.522,0,10-4.478,10-10v-40c0-0.021-0.003-0.041-0.003-0.062c0-0.019,0.002-0.036,0.002-0.055
	c-1.109-95.151-0.242-165.955,0.392-217.654c0.512-41.772,0.881-71.953,0.124-96.945c-1.391-45.538-6.61-71.089-20.515-99.611V10
	C386.017,4.477,381.54,0,376.017,0z M346.017,60h23.716c9.807,21.228,14.356,41.599,16.177,73.238
	C361.88,121.833,346.017,97.457,346.017,70V60z M366.017,40h-20V20h20V40z M326.017,40h-140V20h140V40z M266.017,60h20v50
	c0,13.036-8.361,24.152-20,28.28V60z M166.017,20v20h-20V20H166.017z M142.301,60h23.716v10c0,27.458-15.861,51.83-39.885,63.233
	C127.969,101.562,132.517,81.188,142.301,60z M226.017,492h-100v-20h100V492z M226.017,357.98V452h-99.891
	c0.917-89.136,0.087-156.511-0.526-206.184c-0.474-38.325-0.827-67.019-0.301-90.683c36.103-12.364,60.718-46.357,60.718-85.133V60
	h60v89.048C233.121,213.923,226.017,288.07,226.017,357.98z M386.017,492h-100v-20h100V492z M386.409,243.984
	c-0.611,49.95-1.44,117.709-0.502,208.016h-99.89v-94.02c0-66.513-6.434-136.856-18.165-199.407
	c21.875-5.331,38.165-25.08,38.165-48.573V60h20v10c0,38.769,24.608,72.761,60.709,85.131
	C387.213,178.33,386.869,206.451,386.409,243.984z"/>
<path d="M356.017,346c-5.522,0-10,4.477-10,10v66c0,5.523,4.478,10,10,10s10-4.477,10-10v-66
	C366.017,350.477,361.54,346,356.017,346z"/>
<g>
</g>
<g>
</g>
<g>
</g>
<g>
</g>
<g>
</g>
<g>
</g>
<g>
</g>
<g>
</g>
<g>
</g>
<g>
</g>
<g>
</g>
<g>
</g>
<g>
</g>
<g>
</g>
<g>
</g>
</svg>
