<svg id="Capa_1" enable-background="new 0 0 511.996 511.996" height="512" viewBox="0 0 511.996 511.996" width="512" xmlns="http://www.w3.org/2000/svg"><g><path d="m410.486 80.371c-45.707-11.713-66.214-38.841-68.294-57.79-1.171-20.797-65.401-22.581-86.194-22.581-20.738 0-84.993 1.769-86.193 22.565-1.852 16.321-19.603 45.328-68.295 57.806-21.723 5.567-36.895 25.181-36.895 47.697 0 .19.007.38.021.569.217 2.842 5.596 70.385 31.268 139.125 22.628 60.588 60.469 119.956 123.093 137.082-4.984 16.122-13.43 25.765-17.045 29.341h-14.018c-4.029 0-7.916 1.465-10.944 4.126l-21.364 18.771c-3.582 3.147-5.637 7.688-5.637 12.457v25.875c0 9.144 7.438 16.582 16.581 16.582h71.928c4.143 0 7.5-3.357 7.5-7.5s-3.357-7.5-7.5-7.5h-71.928c-.872 0-1.581-.71-1.581-1.582v-25.875c0-.455.195-.888.537-1.188l21.364-18.771c.289-.254.66-.394 1.044-.394h136.127c.384 0 .755.14 1.044.394l21.364 18.772c.342.3.537.732.537 1.188v25.875c0 .872-.709 1.582-1.581 1.582h-71.928c-4.143 0-7.5 3.357-7.5 7.5s3.357 7.5 7.5 7.5h71.928c9.143 0 16.581-7.438 16.581-16.582v-25.875c0-4.77-2.055-9.31-5.637-12.456l-21.364-18.771c-3.028-2.661-6.915-4.126-10.944-4.126h-14.015c-3.637-3.598-12.071-13.239-17.048-29.341 62.445-17.078 100.236-76.154 122.874-136.502 1.454-3.878-.51-8.201-4.389-9.656-3.873-1.452-8.2.51-9.656 4.389-21.985 58.606-58.074 116.041-119.561 128.945-26.088 5.505-45.366 1.012-53.026-.077-51.126-10.925-91.141-54.231-119.182-129.156-24.167-64.576-30.036-130.159-30.442-135.01.129-15.541 10.627-29.036 25.618-32.877 5.689-1.458 10.956-3.11 15.845-4.906 2.868 24.04 10.997 46.967 23.768 66.845 13.458 20.946 31.507 37.714 52.408 48.741v7.678c0 3.875 1.414 7.606 3.981 10.508l22.473 25.402c3.008 3.401 7.337 5.353 11.879 5.353h40.821c4.539 0 8.868-1.95 11.878-5.351l22.475-25.405c2.566-2.902 3.98-6.634 3.98-10.507v-7.678c20.9-11.026 38.95-27.795 52.407-48.741 12.769-19.875 20.896-42.797 23.766-66.833 4.904 1.788 10.161 3.437 15.846 4.894 14.991 3.841 25.489 17.336 25.618 32.877-.337 4.032-4.448 50.178-19.719 102.595-1.159 3.977 1.126 8.14 5.103 9.298 3.968 1.158 8.14-1.124 9.298-5.103 16.366-56.177 20.145-103.926 20.298-105.931.015-.19.021-.38.021-.57.001-22.516-15.171-42.13-36.894-47.697zm-176.767 327.628c14.567 2.28 29.966 2.284 44.558 0 3.266 11.137 7.962 19.824 12.355 26.187h-69.268c4.393-6.364 9.09-15.051 12.355-26.187zm22.279-392.999c35.524 0 58.835 4.626 67.944 8.244-8.243 3.308-22.565 5.428-31.381 6.393-11.935 1.31-24.562 1.853-36.563 1.853-17.549 0-51.887-1.801-67.944-8.246 9.109-3.618 32.42-8.244 67.944-8.244zm-54.76 142.734c-2.568 2.901-3.983 6.634-3.983 10.511v20.081c-34.757-21.414-57.81-60.167-61.743-104.518 4.67-2.34 9.065-4.904 13.164-7.678 11.869 31.526 34.706 56.494 63.392 69.363zm28.513 75.629-12.182-13.77 12.683-4.804 5.212 5.891zm-17.496-27.797c0-11.36 0-18.579 0-29.626l12.684 4.805v20.016zm17.997-38.849-12.683-4.804 12.182-13.769 5.713 12.682zm13.175 72.806 5.713-12.684h13.716l5.714 12.684zm28.632-36.424-7.733 8.741h-16.653l-7.733-8.74v-24.693l7.733-8.74h16.653l7.733 8.741zm-28.632-61.117h25.144l-5.714 12.684h-13.715zm-7.839-15c-4.54 0-8.869 1.95-11.877 5.351l-1.141 1.29c-28.488-11.111-51.038-35.823-61.489-67.428 9.652-9.056 16.339-19.195 20.309-29.487 18.036 7.94 54.606 9.782 74.608 9.782 21.037 0 57.411-2.225 74.585-9.771 3.099 8.107 9.038 19.01 20.295 29.588-10.468 31.55-32.997 56.217-61.451 67.316l-1.141-1.29c-3.009-3.399-7.338-5.35-11.877-5.35h-40.821zm58.839 34.931-12.682 4.805-5.212-5.892 5.713-12.683zm-12.181 71.45-5.714-12.683 5.212-5.891 12.683 4.805zm17.496-27.797-12.684-4.805v-20.016l12.684-4.805zm15-17.24v-20.081c0-3.788-1.359-7.433-3.815-10.302-.057-.067-.106-.139-.165-.205l-.001-.001-10.831-12.243c28.67-12.863 51.497-37.81 63.372-69.312 3.948 2.664 8.324 5.235 13.18 7.656-3.942 44.337-26.991 83.079-61.74 104.488z"/></g></svg>