<svg height="512" viewBox="0 0 512 512" width="512" xmlns="http://www.w3.org/2000/svg"><g id="Flat"><path d="m392 431.98v56l-272 .02-.01-149.11-.02-250.89 63.99-24.01 16.04-39.99h112l15.96 39.98 55.01 20.62 9 3.38.02 336z" fill="#314c73"/><path d="m392 431.98v56l-272 .02-.01-149.11c100.42-40.99 198.89-119.27 262.98-254.29l9 3.38.02 336z" fill="#2e466c"/><path d="m248 288h16v200h-16z" fill="#283f61"/><path d="m320 264h72v16h-72z" fill="#283f61"/><path d="m320 400h72v16h-72z" fill="#283f61"/><path d="m136 400h56v16h-56z" fill="#283f61"/><path d="m200 24 56 280 56-280z" fill="#cfcfcd"/><path d="m256.007 104.005-56.007-80.005h112z" fill="#bfbfbd"/><path d="m208 56h96v56h-96z" fill="#b0b0ae"/><path d="m256 104-39.333 39.333-16.667-119.333z" fill="#e0e0de"/><path d="m256 104 36.333 36.333 19.667-116.333z" fill="#e0e0de"/><path d="m240 120 8 24-16.8 112 24.8 48 24.8-48-16.8-112 8-24-16-16z" fill="#348fd9"/><path d="m184 64 16-40 56 280-80-112 24-40-48-24z" fill="#395a8d"/><path d="m328 64-16-40-56 280 80-112-24-40 48-24z" fill="#395a8d"/><path d="m152 448-56 40-72-144v-136l45.61-91.23a16 16 0 0 1 7.16-7.16l43.23-21.61v264l17.09 51.26 5.23 15.71z" fill="#34507b"/><path d="m103.646 243.242h16v108.812h-16z" fill="#2e466c" transform="matrix(.956 -.294 .294 .956 -82.597 45.996)"/><path d="m142.32 418.97-41.91 27.7-8.82-13.34 45.5-30.07z" fill="#2e466c"/><path d="m488 472-64 16-32-192v-208l47.43 20.33a16 16 0 0 1 9.6 12.94l34.59 311.31 1.77 15.93z" fill="#34507b"/><path d="m485.39 448.51-44.07 7.38-2.64-15.78 44.94-7.53z" fill="#2e466c"/><g fill="#253555"><path d="m220 336a12 12 0 1 0 -12-12 12.013 12.013 0 0 0 12 12z"/><path d="m220 392a12 12 0 1 0 12 12 12.013 12.013 0 0 0 -12-12z"/><path d="m80 400h16v16h-16z"/><path d="m64 368h16v16h-16z"/><path d="m432 400h16v16h-16z"/><path d="m424 360h16v16h-16z"/></g></g></svg>